<svg id="Capa_1" data-name="Capa 1" xmlns="http://www.w3.org/2000/svg" viewBox="0 0 460.37 404.46"><path d="M159.67,281.19c3.05,11.07,6.32,21.71,8.91,32.51,7.59,31.57,14.92,63.19,22.35,94.79.07.33.11.66.16,1,.7,4.62,4.18,9.27.69,13.89-4.68,6.2-10.92,11.11-18.68,11.36-10.4.33-21.07.07-31.23-1.92-11.31-2.21-19.69-9.08-23-21.09q-12.21-43.8-25-87.43c-3.77-13-7.87-25.81-12.21-38.57a9.14,9.14,0,0,0-5.34-4.94c-11.13-3.36-17.64-10.3-18.24-22.1-.16-3.11-1.39-4.27-4.39-4.77-12.54-2.11-24-13.69-23.12-28.79,1.17-19.61.95-39.32,2.28-58.92,1-14.79,6.33-18.92,21.19-19.19,1.64,0,3.28,0,5.19,0,.59-4.92,1.12-9.52,1.7-14.11,1.79-14.1,5.95-19.49,19.85-21.63,29.91-4.62,59.92-6.13,90.05-1.11,11.09,1.85,18.23,6.82,19.32,19.59,7.25-2.23,13.87-4.13,20.41-6.31,51-17,98.1-41.54,141.85-72.63,8.14-5.78,16-12,24.11-17.8,1.58-1.14,4-2,5.74-1.65.93.2,1.74,3.35,1.71,5.16-.14,9-.9,18-.85,27,.11,18.83.71,37.66.85,56.49.06,8.33-.65,16.66-.72,25,0,1.71.76,4.06,2,5,16.21,12.91,20.27,30.48,18.26,49.73-1.44,13.93-7,26.31-19,34.89a6,6,0,0,0-2.18,4.12q-2.76,60.42-5.27,120.85c-.08,1.65.39,3.38.08,5-.43,2.22-.76,5.41-2.23,6.23s-4.94.11-6.53-1.17c-7.65-6.17-15.09-12.61-22.37-19.21-23.07-20.91-47.81-39.52-75.47-53.9a212.59,212.59,0,0,0-30.75-13.16c-14.76-4.91-29.92-8.65-44.92-12.84-3.33-.92-6,.13-9.19,1.77-6.72,3.4-14.18,5.35-21.36,7.84A42.22,42.22,0,0,1,159.67,281.19Zm190.06,56.22a32.08,32.08,0,0,0,.66-3.4c1.91-31.24,4.15-62.47,5.6-93.74,1.64-35.6,3.12-71.23,3.62-106.86.37-26-1-52.12-1.54-78.29-50.34,35.28-105.2,63.17-165.56,79.08,2.69,41.27-1,82.76-.78,125.25C251.41,270.05,302.83,298.44,349.73,337.41ZM184.92,176.57h1.24c0-8.16.51-16.37-.14-24.48s-2.58-16.37-3.79-24.57c-.87-5.9-4.56-8.47-10-9.42-28.52-5-57-4.54-85.51.17-9.35,1.55-13,5.76-13.59,14.26-1.42,19.91-2.47,39.86-4.38,59.72-2.13,22.07,1,43.85,2.46,65.73.4,5.87,3.11,10.15,9.37,11.3,4.24.78,8.47,2,12.74,2.19,12.12.42,24.26.74,36.38.45,12.63-.3,25.29-.93,37.86-2.22,14.62-1.49,14.6-1.87,16.83-16.21a42.57,42.57,0,0,0,.54-6.47Q185,211.8,184.92,176.57ZM94.32,283.34c.42,2.55.56,4,.92,5.48,8.14,32.3,16.07,64.66,24.62,96.85,2.37,8.94,6.42,17.47,10,26.06,2.84,6.75,8.26,10.51,15.37,12.3,13,3.28,25.43,1.07,37.7-3.39,2.55-.93,3-2.37,2.37-5-4.61-19.93-8.63-40-13.63-59.85-5.82-23.08-12.53-45.93-18.66-68.93-1.11-4.17-3.13-5.2-7.15-4.37a50.8,50.8,0,0,1-9.94.83C122.31,283.39,108.67,283.34,94.32,283.34ZM368.47,354.9a12.56,12.56,0,0,0,.7-2.17c2.21-36.25,5.34-72.48,6.37-108.77,1.55-55,1.6-110,2.37-165,.14-10.31.63-20.63,1-30.94.1-2.52.56-5,1-8.6-5.74,4.27-10.54,7.79-15.25,11.44a3.84,3.84,0,0,0-1.36,2.5c-.37,7.48-1,15-.79,22.44.83,23.79,2.86,47.58,2.85,71.37,0,30.82-1.53,61.63-2.49,92.45q-.53,16.48-1.49,33c-1.28,22.44-2.75,44.87-3.93,67.31a9.57,9.57,0,0,0,2.2,5.84C362.17,348.84,365.17,351.52,368.47,354.9ZM57.9,155.44c-13.78-1.95-17.5.67-17.88,13.63-.55,18.78-.82,37.57-1,56.35-.09,9.39,8.36,17.15,18.89,17Zm325.28.31v64.67C404.54,197.28,397.68,169.14,383.18,155.75Z" transform="translate(-30.52 -30.39)"/><path d="M471,34.21c-.94,1.36-1.7,3.08-3,4.24-20.78,19.09-39.47,40.12-57.49,61.77a38.86,38.86,0,0,1-6,5.94c-.93.72-2.67.37-4,.51.2-1.34-.07-3,.66-4,12.5-15.58,24.81-31.33,37.84-46.46,7.26-8.43,15.72-15.82,23.71-23.61,2-1.95,4.33-3.39,7-1.06C470.21,32.08,470.38,33,471,34.21Z" transform="translate(-30.52 -30.39)"/><path d="M413.8,241.94c1.65-2.09,2.67-3.39,3.7-4.68a37.6,37.6,0,0,1,3.17,3.27c1.09,1.44,1.74,3.24,2.93,4.57,17.58,19.59,31.79,41.53,44.71,64.34.94,1.67.11,4.34.11,6.55-2.25-.83-5.39-1-6.59-2.63-3.57-4.79-6.12-10.32-9.52-15.25-9.45-13.7-19.19-27.21-28.69-40.88C420.25,252.38,417.23,247.3,413.8,241.94Z" transform="translate(-30.52 -30.39)"/><path d="M426.37,171.41l-3.29-2c.86-1,1.5-2.63,2.6-3.08,11.39-4.65,22.8-9.25,34.3-13.59,7.47-2.81,15.11-5.18,22.68-7.73,2.82-1,6.3-2.7,7.83,1.1,1.67,4.16-2.29,5.36-5.19,6.37-9.42,3.28-18.92,6.36-28.41,9.45-8.22,2.69-16.47,5.29-24.72,7.89C430.44,170.38,428.66,170.79,426.37,171.41Z" transform="translate(-30.52 -30.39)"/></svg>