<svg id="Capa_1" data-name="Capa 1" xmlns="http://www.w3.org/2000/svg" viewBox="0 0 303.37 432.84"><path d="M137.6,440.32c-4.87,2.26-9.66,4.73-14.66,6.67-1.88.74-4.24.26-6.38.34a38.47,38.47,0,0,1,1.17-6c1.85-5.19,4.56-10.15,5.71-15.47.83-3.8,0-8.1-.67-12.06-.65-3.66-2.87-6.33-6.41-8.27-9.85-5.39-16.42-13.69-20.56-24.13-7.88-19.84-10.89-40.62-11-61.72-.15-29.06.51-58.13,1.17-87.18.79-34.48,1-68.92-.95-103.38C83.86,109,83.74,88.79,89.93,69.19c8.86-28.06,27.47-45.48,57-48.33,27.43-2.65,55-3.46,82.61-4.55,24.66-1,49.35-1.48,74-1.73,12.16-.12,24.17,1.62,35.41,6.78a39.82,39.82,0,0,1,16.07,13.17,18.07,18.07,0,0,0,4.06,4.5c11.6,8,17.72,19.52,20.88,32.83a303.34,303.34,0,0,1,7.78,70.81c-.07,35.92-1.51,71.84-1.87,107.76-.22,22.34.35,44.68.78,67s1.47,45-2.33,67.31a87.66,87.66,0,0,1-3.89,14.76C376,412,365.56,418,353.91,420.83A202.82,202.82,0,0,1,316.76,426c-28.59,1.52-57.13-3-85.74-1.84-16.94.66-29.62.29-46.77,1.85S138,440.53,137.6,440.32Zm-11.32-1.05c3.4-1.54,5.84-2.49,8.13-3.7,9.79-5.2,19.54-10.5,29.32-15.72a98.89,98.89,0,0,1,46.53-12.1c26.15-.17,52.31.05,78.43-.79a398,398,0,0,0,45.71-4.36c10-1.49,19.68-5.36,24.75-15.33a63.16,63.16,0,0,0,5.92-15.42c3.4-16.41,2.82-33.07,2.33-49.74-.82-27.88-1.63-55.77-1.64-83.66,0-43.67,3.21-87.34.17-131-1.1-15.69-2.43-31.48-5.32-46.91-3.69-19.71-16.29-32.51-35.87-37A133.33,133.33,0,0,0,293.11,20c-25,.36-49.92,1.79-74.86,3-22.9,1.1-45.82,2-68.65,3.87-27.14,2.24-45,16.73-53.08,43-5,16.16-5.76,32.76-5.2,49.42,1.62,48.05,2.37,96.06-.13,144.13-1.74,33.58-1.35,67.18,5.66,100.33,3.34,15.77,9.43,29.72,24.53,38,4.37,2.4,6.66,6.81,7.89,11.67C131.43,421.93,129.86,430.12,126.28,439.27Z" transform="translate(-84.4 -14.58)"/><path d="M125.66,102c.64-10.64,1.36-21.27,1.88-31.92.17-3.44,1.49-6.31,4.56-7.34a85.17,85.17,0,0,1,16.73-4.24c10.28-1.22,20.65-1.86,31-2.32a111.05,111.05,0,0,1,18.33.51c10.34,1.26,16.4,6.12,17.56,16.53C218,93.6,218,114,209.26,133.39c-2.9,6.44-8,10.31-14.92,10.6-16.47.69-33,.82-49.45,1.17a11.67,11.67,0,0,1-1.32-.07c-13.79-1.31-17.18-4.76-17.58-18.54-.24-8.17,0-16.36,0-24.54Zm76.59,30.82c1.47-3.08,2.81-5,3.37-7.23,1.27-4.93,2.38-9.93,3.16-15,1.56-10.1,3.21-20.25,1-30.45-1.06-5-2.65-9.78-7-13.11-12.1,7.77-20.37,18.68-28.5,29.14ZM170.42,101c-10.16,12.31-22.62,20.84-29.53,34.21,6.35,4.9,47.65,5.06,55.51.33Zm-34.95,28.73L164.8,97.61,131,73.38C130.5,92.67,131.44,111.22,135.47,129.68Zm60.08-66.74c-3.43-.29-6.9-1-10.31-.81q-20.33,1.13-40.6,2.79c-3.09.25-6.09,1.53-9.14,2.34l0,1.52,33,23.37Z" transform="translate(-84.4 -14.58)"/><path d="M212.61,294H132c-1,0-2.32.32-3-.19-1.11-.83-2.35-2.15-2.48-3.39-.09-.79,1.56-2.18,2.69-2.58,1.29-.46,2.88-.11,4.34-.13,50.2-.52,100.41-.86,150.62-1.67,14.13-.22,28.24-1.8,42.37-2.74,2.11-.14,4.82-1,5.16,2.28.36,3.46-2.33,3.89-5,4l-114.1,5.82Z" transform="translate(-84.4 -14.58)"/><path d="M226.15,321.66c32.54-.58,65.08-1.19,97.62-1.62,1.45,0,4.05,1.36,4.19,2.35.39,2.85-1.85,3.9-4.51,4-13.28.38-26.55,1.12-39.82,1.09-51.67-.12-103.35-.47-155-.74-2.31,0-5.23.41-5.19-3s3-3.32,5.51-3.32h97.21Z" transform="translate(-84.4 -14.58)"/><path d="M230.07,223.31l-93.7,2.08c-1.46,0-3.11.41-4.33-.13a5.08,5.08,0,0,1-2.72-3.13c-.14-.82,1.4-2.24,2.49-2.84.92-.51,2.27-.28,3.44-.31q94.58-2.25,189.15-4.45c2.68-.06,6.78-1.39,6.94,3s-4.06,3.28-6.7,3.35q-47.28,1.2-94.58,2.2Z" transform="translate(-84.4 -14.58)"/><path d="M232.24,193.64q-44.2,1.11-88.41,2.19c-3.49.08-7-.36-10.49-.51-2.56-.11-4.6-1.22-3.92-3.9.28-1.1,2.71-2.34,4.18-2.35,19.4-.19,38.82.38,58.19-.34,31.5-1.16,63-3.2,94.45-4.71,14.28-.69,28.58-1,42.88-1.51,2.28-.08,4.7-.09,4.76,3s-2.2,3.21-4.57,3.3q-48.56,1.89-97.11,3.87Z" transform="translate(-84.4 -14.58)"/><path d="M175.24,235.23c12.85,0,25.7.1,38.55-.08,3.23,0,4.93,1.12,5.66,4.1.37,1.56.9,3.09,1.13,4.67,1.36,9.42-1.69,13.1-11.21,13.2q-34.78.35-69.58.48c-4,0-8.23-.25-10.06-4.65-2-4.72-2.61-9.82.35-14.25,1.1-1.64,4-2.84,6.17-2.89,13-.26,26-.13,39-.13Zm-40.37,6.43c.09,7.38,2.15,9.56,8.51,9.41,22.47-.51,44.94-1.15,67.41-1.78a35,35,0,0,0,4.09-.59c.64-8.67.25-8.93-7.55-8.59-14.72.63-29.46,1.16-44.19,1.51C153.82,241.84,144.5,241.66,134.87,241.66Z" transform="translate(-84.4 -14.58)"/><path d="M276.17,351.15q23.4.83,46.79,1.66a10.28,10.28,0,0,1,3.88.51c1.11.54,2.82,2.09,2.63,2.62a5.63,5.63,0,0,1-2.93,3.18c-1.39.49-3.15-.13-4.75-.16-17.5-.23-35-.58-52.51-.62-10.8,0-21.6.46-32.41.71-2.4.05-5.06.19-5-3.26.08-3.11,2.57-3,4.83-3q19.69,0,39.41,0Z" transform="translate(-84.4 -14.58)"/><path d="M278.91,136.31c-10.05,0-20.11.11-30.16-.13-1.31,0-2.58-1.85-3.86-2.84,1.46-1.06,3-3.15,4.38-3,22.24,2,44.25-1.57,66.36-2.47a117.59,117.59,0,0,1,13.54.16c1.4.11,2.7,1.58,4.05,2.42-1.35,1.26-2.58,3.38-4.1,3.62a146.07,146.07,0,0,1-14.81,1.16c-11.79.65-23.59,1.24-35.39,1.85Z" transform="translate(-84.4 -14.58)"/><path d="M276.42,111.17c-8.41,0-17.47,0-26.53,0-2.17,0-4.75.3-4.9-2.9-.15-3.44,2.45-3.36,4.88-3.44q38.75-1.39,77.49-2.81c2.19-.07,5.19-1,5.32,2.65s-2.76,3.46-5.3,3.6C310.61,109.2,293.85,110.17,276.42,111.17Z" transform="translate(-84.4 -14.58)"/><path d="M290.68,85.38c-10.49,0-21,.08-31.48,0a55,55,0,0,1-10.42-1c-1.33-.27-2.38-2-3.55-3,1.32-1,2.73-3,4-2.94,25.69,2.29,51.27-.63,76.89-1.41,2.25-.07,4.4.12,4.5,2.81s-2.09,3.53-4.48,3.64L290.69,85Z" transform="translate(-84.4 -14.58)"/><path d="M324.24,62.76c-20.63-2.33-39.39.09-58.18,1.09-6.27.33-12.56.56-18.82.4-1.28,0-2.5-2.07-3.74-3.18,1.22-1,2.42-2.72,3.69-2.78q32.81-1.51,65.65-2.62a75.35,75.35,0,0,1,10,.75c2.19.22,5.53-.41,5.12,3C327.79,61,324.94,62.18,324.24,62.76Z" transform="translate(-84.4 -14.58)"/></svg>