<svg
  id="Capa_1"
  data-name="Capa 1"
  xmlns="http://www.w3.org/2000/svg"
  viewBox="0 0 485.48 270.31"
><path
    d="M488,269.47c-6.24-5.63-11.21-10.78-16.83-15.06C438.43,229.46,409.84,200.13,381,171c-23.76-23.93-53.64-35.94-86.91-39.84-3-.35-6-.56-8.93-1-28.42-4.53-55.71,1.52-82.64,9.41-35.3,10.33-65.49,30.3-94.32,52.34-17.86,13.66-34.82,28.49-52.46,42.44-8.88,7-18.38,13.26-27.64,19.8-.92.65-2.13,1.42-3.12,1.32A31.87,31.87,0,0,1,19.36,254a27.24,27.24,0,0,1,3.1-4.46c9.19-8.93,18.4-17.85,27.74-26.63,30.41-28.6,62.37-55,99-75.69,31.12-17.59,64.57-26.4,99.43-31.36,38.76-5.51,74.22,4.45,108.06,22.75,20.72,11.21,37.35,27.15,53.61,43.72,15,15.33,29.88,30.93,45.83,45.26,12.48,11.21,26.54,20.66,39.88,30.91,6.62,5.09,7,12.71.88,18.41-1.57,1.46-3.51,2.52-5.19,3.87-5.4,4.33-11.66,8-16,13.21-15.24,18.49-32.81,33.86-53.9,45.46-24.58,13.51-49.12,27.1-76.53,34C316,380.73,286.16,385,255.82,384.62c-13.49-.16-27,.08-40.46-.71-19.16-1.12-37.23-6.54-54.68-14.66C134,356.82,110.33,340,87.49,321.72c-17.94-14.36-37-27.34-52-45.13-1-1.22-3.5-1.61-5.32-1.67-5.87-.18-10.1-3-13.35-7.6-1.77-2.51-1.21-4.73,1.08-6.55,2.66-2.12,3.09.66,4.46,1.9a11.77,11.77,0,0,0,4.68,2,4.77,4.77,0,0,0,2.41-.52c7-2.26,12.15-.6,17.63,4.86,16.24,16.22,32.29,32.87,50.19,47.13,25.91,20.65,53.38,39.34,84.35,52.12a117.72,117.72,0,0,0,40.9,8.49c42,1.53,83.52-1.25,124.11-13.71a298.42,298.42,0,0,0,100.2-52.81c7.45-6,13.75-13.58,19.77-21.08C472.43,281.87,477.44,273.94,488,269.47Z"
    transform="translate(-15.76 -114.33)"
  /><path
    d="M264.79,317.14c-33-3.67-64.67-10.16-92.33-31.07s-29.83-53.93-18.85-78.33c8.13-18.07,20.94-32.52,36.22-44.61,17.68-14,37.59-24.64,59.73-29,35.47-7.05,65.5,3.84,88.82,31.72,11.5,13.75,21.27,28.66,26.34,46.11,10.27,35.31,4.38,63.94-28.38,86.17-8.92,6.05-19.64,9.7-29.89,13.45-6.33,2.32-13.3,3.08-20.05,4C279.31,316.39,272.13,316.6,264.79,317.14Zm92.48-77.36,1.6-.29c-2.58-9.91-4.47-20.06-7.87-29.68-6.4-18.1-18.93-32.3-33.15-44.4-14.9-12.69-32.44-20.11-52.91-18.23-26,2.4-49.2,11.69-69.14,28.46-16.08,13.52-28.44,29.65-34,50.53-4.53,16.94.65,30.83,11.71,43.21a59.12,59.12,0,0,0,10.59,9.1c32.85,22.69,69,30.21,108.23,23.14,13.29-2.4,26.32-5.54,38.13-12.81C348.82,277.49,358,261.47,357.27,239.78Z"
    transform="translate(-15.76 -114.33)"
  /></svg>
