<svg id="Capa_1" data-name="Capa 1" xmlns="http://www.w3.org/2000/svg" viewBox="0 0 510.09 467.03"><path d="M47.75,200c.62-4.93,1.64-9.85,1.76-14.8.24-9.84,5.1-16.36,13.76-20.18,8.84-3.89,17.84-7.4,26.76-11.09,2.59-1.07,5.17-2.19,7.91-3.35-12-24.92-11.4-49.87-1.29-74.67,8-19.63,24.08-32.12,41.49-42.57C167,16,211.38,20.58,243,48.06c24.9,21.63,33.29,74.12,16.6,103.43,7,2.95,14,5.94,21,8.8,6.62,2.7,13.25,5.41,20,7.81a9.71,9.71,0,0,0,6.07.15c26.73-9.74,53.41-19.65,80.09-29.53,10.93-4.05,21.9-8,32.76-12.2,5.8-2.24,11.4-3,17.29-.31,27.91,12.85,57.52,21,86.44,31,4.87,1.69,9.62,3.75,14.35,5.82a26.13,26.13,0,0,1,15.83,19.35,107.43,107.43,0,0,1,2.52,20.26q.82,52.23,1,104.47c.15,27.49-.08,55,.06,82.46.08,13.83,1,27.65.79,41.47-.15,11.8-1,23.62-2.18,35.36a29.59,29.59,0,0,1-4.26,11.54c-2.32,3.94-6.06,4.86-11.07,4.7-14.52-.46-26.76-7.3-39.66-12.42-13.45-5.35-27-10.52-40.32-16.13-5.65-2.37-10.91-5.64-16.34-8.52s-9.79-4.86-16.38-1.09C407,456.24,384.51,463.57,362,470.78c-9.29,3-17.9,8.06-27.1,11.41a174.18,174.18,0,0,1-25.9,7.38,42.85,42.85,0,0,1-15.83-.39c-21-3.93-39.93-13.67-59.36-22-11.33-4.83-22.72-9.57-33.74-15-5.86-2.91-11-7.25-15.28-10.14-4.33,1.15-7.94,1.92-11.42,3.08a131.07,131.07,0,0,0-13.53,5.12c-17.23,8-34.31,16.25-51.57,24.13-12.58,5.74-25.27,11.5-39.6,10.74a25,25,0,0,1-9.1-2.23c-4.16-1.94-5.51-6.17-4.2-10.51a10,10,0,0,0,.54-3.81c-3.54-34.69-4-69.48-4.33-104.31-.38-37.3-2-74.59-3.1-111.88a33.1,33.1,0,0,0-.7-4.37ZM300.58,477.32c0-3.27,0-5.56,0-7.85-.17-17.32-.29-34.64-.53-52-.26-18.8-.49-37.61-1-56.4-.48-17-2-33.92-1.9-50.87.18-23.3,2-46.59,2.17-69.89.13-19.64-1.22-39.28-1.62-58.93-.07-3.36-.93-5.13-4-6.35-12.07-4.75-24-9.8-36.14-14.43a6.09,6.09,0,0,0-5.37,1.33c-9.68,11-19.1,22.21-28.57,33.39s-19,22.38-31.8,30c-3.84,2.3-5.49,5.37-5.1,10.25.79,9.77.95,19.62.94,29.43,0,13.15-.51,26.3-.65,39.45q-.67,62.93-1.18,125.85c0,1.55.48,3.89,1.54,4.55,5.24,3.21,10.51,6.59,16.2,8.81q38.37,14.94,77,29.15C286.7,475.12,293.4,475.77,300.58,477.32ZM106.51,162.48c-12.68,4.37-24.73,8.62-36.87,12.63-2.66.88-4.37,2-4.68,4.93-1.35,12.55-3.74,25.09-3.91,37.65-.35,27,.64,53.95.7,80.93,0,23.64-.5,47.28-.63,70.92q-.28,47.22-.33,94.42c0,8.84,1.35,10.13,10.45,10a20.15,20.15,0,0,0,6.86-1c9.14-3.54,18.55-6.64,27.18-11.19,21.2-11.17,41.9-23.3,64.81-30.91,1.18-.39,2.36-2.58,2.48-4,.44-5.47.36-11,.64-16.47.66-13.3,2.07-26.6,2-39.89-.13-27.3-1.05-54.59-1.61-81.88-.36-17.3-.75-34.6-1-51.9,0-4-.62-6.77-5.19-8.1a21.67,21.67,0,0,1-8.86-5.44c-9-9.06-18.15-18.1-26.44-27.83C123,184.56,114.74,173.08,106.51,162.48ZM310.17,470.56c2.16-.5,4-.78,5.68-1.33,10.46-3.38,21-6.41,31.3-10.32C371.64,449.54,398,445.4,421.09,432c3.08-1.78,4.62-3.26,4.56-7.07-.51-34.31-.79-68.63-1.16-102.94,0-1.58-.22-3.15-.24-3.48-8.53-1.33-16.51-1.51-23.74-3.93-15.18-5.08-32.33-18.24-28.62-42.39a201.61,201.61,0,0,1,5.27-22.79c2-7.08,4.24-14,2.6-21.53-1-4.56-2.93-7.73-8-8-3.32-.19-6.64-.45-9.94-.78-7.16-.71-12.91-3.89-15.6-10.73-4.32-10.94,1.53-26.41,11.77-32.12,4.07-2.27,8.36-4.19,12.3-6.66,6.05-3.8,8.86-9.48,9.09-17.45-2.85.91-5,1.55-7.15,2.27-19.23,6.49-38.44,13-57.69,19.44-3.09,1-3.93,3-3.89,6,.17,13.83.44,27.66.19,41.48-.33,18-1.05,35.95-1.76,53.92-.54,13.46-2.11,26.93-1.88,40.38.61,36.12,2.07,72.23,2.93,108.35C310.47,439.31,310.17,454.63,310.17,470.56ZM435.82,304.21c3.83-1.25,6.88-2.54,10.06-3.23,10.05-2.17,20.08-5.4,30.23-5.9C502,293.8,514.54,320,504.93,339.33c-2.88,5.81-5.94,11.54-9,17.29-5.47,10.44-4.12,19.3,4.76,26.79,10.72,9,18.74,19.91,23.34,33.08,3.51,10.07,6.73,20.39,3.58,31.22-1,3.65-3,7-4.5,10.55-2.24,5.28-.84,8.45,4.48,10.25,2,.69,4.11,1.36,6.18,2,5.39,1.64,7.08,1,7.8-4.73,1.36-10.89,2.54-21.84,2.92-32.79.35-10.3-.74-20.64-.68-31,.16-25.66.92-51.31.85-77-.07-28.65-.62-57.3-1.32-85.94-.3-12.36-3-24.47-2.11-37.07,1.46-21.31-2.54-26.52-23.36-34-23.44-8.41-46.56-17.75-69.82-26.67-2.55-1-5.13-1.85-8.48-3.05,2.71,28.19,1.45,55.42-.23,82.7S437,275.88,435.82,304.21ZM189,37.79c-38.8-1.16-58.82,14.82-74.71,35.69-12.38,16.26-17.18,53.44,1.07,76.7,16.94,21.59,31.62,44.93,50.25,65.19,2.67,2.91,6.59,4.91,10.29,6.5,1.5.65,4.52-.33,5.88-1.6,5.1-4.76,9.8-10,14.67-15,18.7-19.25,36.93-38.88,50.9-62a29.7,29.7,0,0,0,3.21-6.17c6.47-20.44,5.45-41-3.93-59.82C233,50.16,208.47,39.3,189,37.79ZM508.75,461c1.75-3.85,3.19-7.57,5.08-11,3-5.57,3.33-11.25,2.25-17.41-3-16.92-10.46-31.1-24-41.94a25.32,25.32,0,0,1-9.67-16.37c-1.32-8.49.83-16.14,4.79-23.51,2.91-5.42,5.74-10.89,8.63-16.33,6.27-11.83-1.87-29.75-18.26-29.39a61.59,61.59,0,0,0-13.84,1.5c-8.52,2.18-16.92,4.92-25.26,7.73a5.31,5.31,0,0,0-2.74,3.79c-.49,4.46-.47,9-.58,13.47q-1.2,48.69-2.37,97.37c-.12,4.9,1.93,7.45,6.75,8.63,2.73.67,5.44,1.52,8.1,2.44C468.07,446.93,488.49,454,508.75,461ZM387.38,149.68c3.53,14.63-1,25.1-13.71,32.52a83.66,83.66,0,0,1-7.82,4.41c-5.86,2.62-7.53,7.57-8,13.33-.31,3.91,1.42,5.93,5.39,6.15,3.32.18,6.64.49,9.94.89,10.63,1.28,16.37,6.58,18.85,17,1.67,7.06.61,13.83-1.49,20.63-2.78,9-6.2,18-7.81,27.21-3.76,21.59,19.5,40.79,41.46,33.82-2.27-55.36,5.4-110.89,1.41-167.33Z" transform="translate(-47.75 -23.12)"/><path d="M220.47,307.88c-2.94,1.8-5.44,4-8.35,4.93a16.18,16.18,0,0,1-9,.14c-1.55-.47-3.15-3.54-3.16-5.45,0-1.53,2.11-3.37,3.68-4.56,3.89-2.93,8.43-5.12,11.95-8.41,6.05-5.66,10.83-5.25,14.5,2,3.82,7.58,14.79,7.7,21.49.2.77-.86,1.33-1.91,2.06-2.81,3.73-4.56,9.37-4.58,12.54.32s6.68,9.27,12.7,11.28c4,1.31,4.08,6.11.46,8.8-4.19,3.13-8.83,2.75-13.18.44-2.6-1.38-4.81-3.51-7.66-5.66C245.76,318.94,232.82,318.59,220.47,307.88Z" transform="translate(-47.75 -23.12)"/><path d="M220.22,347c-5,2.41-10.12,5.34-16.44,1.4a35.73,35.73,0,0,1,4.71-2.45c4.7-1.65,8.62-3.82,10.67-8.91,1.7-4.23,6.44-4.26,9.13-.5,7.2,10.06,16.48,9.63,23-1.12,2-3.34,4.4-6.09,8.7-5.36,3.83.66,5.14,3.44,5.91,7.09.3,1.43,2.81,2.82,4.58,3.38s3.6-.18,5.43-.22c3.52-.09,6.42,1,6.82,5s-2.15,6-5.54,6.53a19.26,19.26,0,0,1-15.88-4.16C244.45,360.43,234.86,360.3,220.22,347Z" transform="translate(-47.75 -23.12)"/><path d="M135.89,298c-8.43,7.31-18.09,9.74-28.87,7-2.2-.55-5-1.35-6.14-3-3.31-4.65-7.18-4.27-11.95-3.16-3.67.85-8.1,2.15-11.32-2.9,3.37-1.18,6.32-1.8,8.84-3.19A32.12,32.12,0,0,0,94.16,287c3.28-3.47,6.56-3.57,9.53.33,6.41,8.43,16.66,8.26,23-.38,4.69-6.43,9-6,13.28.71,1.25,1.93,4.52,3,7.06,3.53,3.78.81,7.62,1.11,7,6.34-.39,3.57-4.28,5.57-9.1,4.77a18,18,0,0,1-4.69-1.59A45.6,45.6,0,0,1,135.89,298Z" transform="translate(-47.75 -23.12)"/><path d="M135.19,258.45c-9.38,8.57-19.4,9.82-32.57.52-.77-.55-2.31-.18-3.46,0-4.06.57-8.12,1.73-12.17,1.67-2.32,0-4.61-2-6.91-3.06l.48-1.59a27,27,0,0,1,3.11-.94c4.11-.77,7.31-2.51,9.56-6.38,3.58-6.18,8.11-6.08,12.15-.1,5.49,8.12,16.21,7.3,21-1.28,1.2-2.16,4-4.44,6.28-4.68,1.82-.18,4,2.6,5.94,4.14,1.12.88,2,2.31,3.2,2.79a22.75,22.75,0,0,0,6.29,1.38c6.37.59,9.19,2.54,8.92,6.43-.29,4-5,6.79-10.6,5.49C142.59,261.94,139,260,135.19,258.45Z" transform="translate(-47.75 -23.12)"/><path d="M393.06,359.22c-4.72-2.19-9.31.61-14.46,3.22-10.5,5.32-21.05,5.35-30.84-2.5-1.26-1-3.72-.86-5.57-.69-3.58.33-7.11,1.28-10.69,1.48-1.06.06-2.22-1.55-3.33-2.39.91-.8,1.88-1.55,2.73-2.41,2.46-2.51,5.43-4.73,7.22-7.66,5-8.24,8.31-8.75,15.09-1.53,4.87,5.19,10.55,7.7,17.39,4.46,2.12-1,3.54-3.43,5.4-5.06s4-4.42,6.28-4.68c1.9-.22,4.09,2.51,6.23,3.8s4.13,2.94,6.38,3.32c3.65.61,7.73.07,7.95,5.33C403,357.49,399.89,359.29,393.06,359.22Z" transform="translate(-47.75 -23.12)"/><path d="M383.16,398c-10.38,10.76-27.49,12.53-35.27-1.67-2.93,1.41-5.75,3.21-8.84,4.12-2.25.66-4.86.3-7.28.06a2.1,2.1,0,0,1,.08-4.12c5.85-1.32,10-4.78,13.53-9.51,2.35-3.18,5.09-2.3,7.54.32,7.55,8.05,14.53,7.54,21.48-1.46a21.35,21.35,0,0,1,4.34-4.73c4.24-2.9,10.15-.5,10,4.47-.15,5.61,3.1,5.68,6.84,5.91.65,0,1.49-.39,2-.11,1.93,1.15,3.74,2.49,5.59,3.76-1.53,1.84-3.07,5.25-4.59,5.25C393.74,400.23,388.94,398.93,383.16,398Z" transform="translate(-47.75 -23.12)"/><path d="M152.21,147.55c-16.87-4.46-21.54-10.58-23.4-30.36-2.46-26.18,7.66-45.64,31.66-56.65,15.07-6.93,31.07-6.58,45.05,3.71,16.84,12.38,25.1,30,24.79,50.5-.29,19.06-12.18,31.5-28.63,39.47-11.55,5.59-24.09,6.36-36.67,4.89C156.78,158.15,152.59,154.11,152.21,147.55Zm4.68-.2c19.17,8.94,44.53,1.2,55.7-16.65,3.34-5.34,5.47-10.91,4.85-17.41-1.07-11.31-5.89-21-12.4-30.05a30.71,30.71,0,0,0-38.78-9.56c-18.18,9.67-26.76,22.83-22.87,45.07,1.25,7.08,3.42,12.9,9.57,17.2C156.54,138.45,159.12,142.16,156.89,147.35Z" transform="translate(-47.75 -23.12)"/></svg>